<svg xmlns="http://www.w3.org/2000/svg" width="134" height="50" fill="none"><path fill="#414141" d="M.55 35.748v.233h132.985v-.467H.55v.234ZM17.465.508c-.087.04-.242.176-.489.427-.358.362-1.165.91-1.921 1.303-.246.128-.784.363-.988.433-.098.033-.26.08-.361.106-.226.056-.337.108-.413.186-.134.142-.114.285.076.539.231.312.272.414.272.69 0 .381-.08.611-1.182 3.404-.331.84-1.199 3.025-1.458 3.675A522.994 522.994 0 0 0 9.3 15.579c-.938 2.475-4.165 10.309-4.637 11.264-.432.866-.892 1.327-1.514 1.511-.3.089-.311.09-1.393.1-1.112.013-1.093.011-1.195.113l-.046.047-.006.602c-.005.661-.002.692.1.753.065.038.293.038 1.054-.002 1.188-.06 1.601-.07 3.613-.07 1.992 0 2.203.003 3.826.07.352.014.774.027.94.03.327.003.348-.003.438-.115.038-.045.04-.072.045-.638.004-.387-.002-.606-.014-.635-.034-.073-.134-.12-.282-.138a40.237 40.237 0 0 0-1.266-.015c-1.202 0-1.319-.007-1.584-.087-.374-.113-.61-.331-.669-.621-.026-.132-.013-.31.058-.725a4.73 4.73 0 0 1 .14-.597c.187-.583.941-2.627 1.647-4.46l.12-.316c.015-.043.425-1.097.664-1.706.167-.422.337-.85.394-.98l.045-.103h10.39l.081.222c.59 1.614 1.555 4.47 2.105 6.234.498 1.593.619 2.136.552 2.465a.884.884 0 0 1-.18.365c-.109.12-.33.223-.59.276-.056.012-.438.024-.955.03-.935.013-.93.013-1.008.11-.037.046-.039.072-.044.602-.004.372.002.577.016.624a.316.316 0 0 0 .219.202c.078.018.534.01 1.706-.034 1.39-.052 1.957-.06 4.27-.06 2.435 0 2.793.007 4.123.07.3.013.693.027.87.029.308.003.329.002.416-.038.094-.043.14-.286.14-.73 0-.653-.002-.663-.139-.728-.07-.034-.11-.036-1.056-.046-.91-.01-.995-.014-1.154-.046a3.13 3.13 0 0 1-1.947-1.268c-.276-.378-.387-.602-.804-1.627-.871-2.142-2.412-6.314-3.32-8.989a71.981 71.981 0 0 1-.445-1.347c-.109-.338-.237-.734-.287-.879-.452-1.334-.92-2.659-2.27-6.413a1000.16 1000.16 0 0 1-1.61-4.503 82.563 82.563 0 0 1-.796-2.342c-.12-.377-.199-.51-.332-.556a.336.336 0 0 0-.265.024l.001.001ZM15.372 5.21c.09.065.22.354.415.911l.234.674 1.356 3.94c.057.164.136.39.174.503.078.226.152.439.293.853l.328.955c.13.376.26.75.287.836.028.084.14.415.25.734a334.936 334.936 0 0 1 .949 2.8c.008.018-.932.023-4.662.023-2.57 0-4.67-.003-4.67-.007 0-.041.45-1.254.917-2.467l.38-.989c.059-.155.14-.367.181-.469.04-.104.2-.51.352-.904.552-1.416 1.406-3.595 2.043-5.204l.521-1.32c.208-.527.3-.703.427-.812.114-.099.153-.109.226-.056h-.001ZM33.51 7.875c-.032.014-.064.036-.071.053a6.437 6.437 0 0 0-.011.496c0 .491.003.522.085.589.031.025.142.029 1.026.037 1.049.01 1.12.015 1.356.097.13.045.286.169.353.285.07.118.122.307.153.551.054.425.1 2.719.115 5.654.011 2.243-.002 4.033-.068 9.697-.032 2.758-.032 2.79-.071 2.887-.128.323-.45.488-1.05.541-.112.009-.61.017-1.107.017-.646 0-.915.005-.95.02-.078.033-.087.101-.08.615.008.578-.008.547.261.556.093.003.367-.007.606-.022.24-.016.936-.034 1.547-.045 1.907-.03 13.85.01 15.348.052.331.01.604.015.606.013a4.9 4.9 0 0 0 .054-.208c.38-1.538 1.34-5.203 1.547-5.908.046-.157.046-.225.006-.273-.03-.032-.28-.13-.586-.227-.096-.03-.11-.032-.148-.008-.054.03-.1.116-.21.378-.34.814-.968 1.916-1.554 2.73-.502.699-.997 1.241-1.478 1.621-.487.386-.919.578-1.375.62-.435.039-1.434.054-3.455.054-2.494 0-4.622-.032-4.689-.071-.017-.009-.028-.092-.039-.275-.08-1.514-.113-10.411-.052-14.025l.047-2.746c.014-.902.033-1.7.039-1.774.037-.444.205-.66.58-.75.192-.047.55-.059 1.646-.06 1.186 0 1.145.003 1.2-.127.044-.11.033-.919-.014-.986-.056-.078-.157-.089-.696-.066-.96.04-1.58.053-2.996.07a98.067 98.067 0 0 1-5.278-.068c-.467-.022-.527-.02-.597.007ZM54.363 7.873c-.085.04-.092.077-.092.533 0 .455.01.532.083.598l.044.041h.803c.867.002 1.223.018 1.406.06.311.075.49.236.58.524.081.26.103.648.14 2.376.063 2.93.063 5.716 0 11.13-.057 5.027-.056 4.94-.085 5.043-.083.296-.352.475-.841.563-.13.022-.348.029-1.22.037l-1.063.01-.035.041c-.033.038-.035.074-.035.54 0 .274.006.513.011.528.035.084.195.092.87.052.777-.05 2.548-.064 6.743-.053 4.86.01 9.293.037 10.125.06.331.01.607.012.613.005.005-.007.033-.108.06-.226.212-.878 1.023-3.996 1.331-5.116.124-.446.228-.856.231-.913.008-.09.004-.107-.034-.138a2.228 2.228 0 0 0-.35-.142c-.325-.112-.338-.114-.41-.041-.02.017-.091.165-.162.329-.357.834-.917 1.83-1.473 2.618-.855 1.22-1.667 1.968-2.432 2.25-.347.126-.615.143-2.442.162-2.029.019-5.963-.019-6.18-.06-.049-.008-.049-.012-.062-.191-.023-.375-.048-1.635-.066-3.372-.022-2.269-.024-8.472 0-9.986.08-5.356.08-5.327.139-5.535.082-.281.231-.42.537-.495.184-.044.579-.06 1.655-.06.748 0 1.14-.033 1.178-.1.024-.043.03-.126.03-.51 0-.438-.003-.462-.04-.503-.068-.082-.126-.086-.913-.056a96.93 96.93 0 0 1-4.087.065c-1.734 0-2.551-.014-3.76-.063-.727-.031-.74-.031-.797-.004ZM74.375 7.877c-.109.044-.117.087-.111.608l.006.461.057.048.06.048 1.228.008c.743.005 1.289.017 1.378.027.525.068.818.222.964.505.13.25.144.416.176 1.816.083 3.886.098 5.182.087 7.812-.007 1.356-.02 2.952-.03 3.547-.071 4.145-.1 5.04-.159 5.257-.107.384-.39.621-.852.715-.178.036-.237.037-1.39.047-1.297.01-1.26.009-1.304.1-.013.025-.02.212-.02.508v.469l.053.054.054.056.332-.001c.181 0 .589-.01.904-.022 1.078-.038 2.128-.053 3.77-.053 1.712 0 2.471.013 3.862.061.46.017.866.024.902.017a.315.315 0 0 0 .12-.052l.052-.04.006-.46c.006-.509-.002-.56-.102-.606-.043-.02-.22-.027-1.034-.034-.798-.005-1.013-.012-1.152-.036-.484-.079-.719-.258-.832-.633-.04-.138-.052-.655-.104-4.443a313.753 313.753 0 0 1 0-9.876c.052-3.706.058-3.967.08-4.076a.777.777 0 0 1 .422-.519c.269-.126.486-.147 1.571-.147.58 0 .814-.005.85-.02.096-.04.101-.075.101-.572 0-.501-.003-.516-.107-.573-.062-.034-.075-.034-.779-.005a81.226 81.226 0 0 1-3.838.065c-1.785 0-2.814-.015-4.28-.063-.9-.03-.866-.03-.941 0v.002ZM87.85 7.878a.227.227 0 0 0-.069.047c-.024.034-.019.994.006 1.04.037.075.076.08.726.08 1.412.002 1.744.053 2.023.314.17.159.254.338.325.701.044.222.06.657.096 2.524.035 1.86.035 15.315-.002 15.496-.085.43-.3.593-.872.667-.095.012-.582.023-1.229.03l-1.072.01-.045.049-.045.047v.46c0 .523.008.562.12.605.084.032.314.032.9-.002.25-.014.867-.033 1.37-.041 1.933-.033 12.362-.007 13.886.034.388.01.921.02 1.186.022l.482.003.12-.055a.667.667 0 0 0 .32-.283c.024-.05.151-.362.278-.694l.904-2.354c.49-1.274.673-1.774.681-1.845.007-.09.003-.1-.045-.147a3.685 3.685 0 0 0-.352-.205c-.432-.226-.456-.222-.686.111-.58.846-2.19 2.777-2.638 3.165-.414.359-1.147.7-2.001.934a5.39 5.39 0 0 1-1.195.204c-.93.056-2.73.085-3.298.053-.904-.053-1.75-.169-2.136-.295-.837-.27-1.302-.847-1.46-1.81-.042-.256-.08-2.38-.092-5.313l-.013-2.425h.582c.965 0 2.169.038 3.055.094.815.053 1.082.1 1.35.232.356.175.595.467.75.912.091.263.275.954.363 1.372.041.192.087.375.102.406.049.095.073.097.525.04.226-.03.439-.064.476-.077.094-.038.128-.12.113-.273a34.882 34.882 0 0 1-.189-4.13c.019-1.461.041-2.096.097-2.585.011-.108.009-.115-.043-.169l-.056-.058-.285-.012a13.973 13.973 0 0 0-.511-.014c-.209-.002-.23.002-.274.036-.054.045-.082.134-.084.261a3.7 3.7 0 0 1-.029.316c-.103.832-.337 1.586-.598 1.94-.193.263-.5.418-1.012.514-.306.056-1.875.137-3.95.2l-.376.012V8.926l.339.01c.185.005 1.554.036 3.042.068 2.87.061 2.844.06 3.251.154a5.883 5.883 0 0 1 1.842.797c.278.192.876.776 1.516 1.48.541.599 1.598 1.842 1.713 2.014.026.043.104.082.157.082.06 0 .554-.239.632-.304.041-.036.051-.057.051-.122 0-.058-.2-.67-.702-2.151-.386-1.14-.771-2.279-.855-2.532-.165-.501-.187-.54-.322-.563a3.96 3.96 0 0 0-.45.018c-.33.025-.838.03-3.507.044-1.718.008-4.67.017-6.559.019-3.502.005-3.555.005-5.326-.063-.83-.033-.93-.033-1 .001h-.001ZM109.257 7.882l-.065.029-.006.503c-.005.536.002.578.082.612.031.014.326.019.976.019.988 0 1.501.019 1.703.058.276.054.491.197.596.394.137.26.158.49.215 2.473l.039 1.322c.032 1.037.043 5.432.019 7.095-.05 3.492-.128 6.507-.189 7.377-.029.426-.082.578-.259.75a.855.855 0 0 1-.406.215c-.137.04-.156.04-1.458.048l-1.321.01-.05.048-.052.046-.005.457c-.008.522 0 .57.1.613.059.027.124.027.948-.002a88.627 88.627 0 0 1 3.507-.062c1.171 0 1.745.009 3.565.052 1.234.03 3.701.04 4.307.018 2.408-.086 4.15-.438 5.752-1.161 1.384-.624 2.407-1.387 3.491-2.6 1.488-1.666 2.318-3.382 2.64-5.451.117-.747.148-1.204.15-2.14 0-.84-.017-1.108-.103-1.724a9.798 9.798 0 0 0-1.146-3.43c-.607-1.079-1.421-2.023-2.474-2.87-.147-.12-.377-.285-.607-.444-1.926-1.311-4.242-1.999-7.444-2.209-1.157-.076-2.695-.088-4.733-.039-2.227.056-2.833.063-4.187.047a100.499 100.499 0 0 1-2.9-.069c-.579-.022-.609-.022-.685.014Zm11.134 1c.936.08 1.733.214 2.538.427 1.844.49 3.43 1.372 4.54 2.525 1.041 1.083 1.913 2.718 2.36 4.426.211.805.304 1.453.32 2.243.048 2.29-.622 4.62-1.845 6.413a9.388 9.388 0 0 1-1.067 1.284c-.363.353-.687.63-1.006.861-1.473 1.076-3.186 1.697-5.228 1.892-.372.036-1.697.029-2.047-.009-.956-.105-1.658-.317-2.121-.637-.243-.17-.369-.316-.554-.652a2.628 2.628 0 0 1-.334-1.06c-.043-.422-.066-4.035-.066-9.943 0-6.366-.002-6.234.09-6.657.121-.546.4-.846.91-.982.276-.074.675-.127 1.151-.156a32.934 32.934 0 0 1 2.36.024h-.001ZM10.759 48.092c-.85-.49-1.806-1.69-1.806-3.356 0-.685.186-1.763 1.142-2.816 1.089-1.2 2.31-1.42 3.32-1.42.744 0 1.753.122 2.736.905.903.686 1.7 1.813 1.7 3.38 0 .833-.293 1.69-.903 2.45-.744.93-1.833 1.592-3.533 1.592-.638 0-1.7-.196-2.656-.735Zm5.843-3.258c0-2.449-1.912-3.919-3.267-3.919-.186 0-1.01-.122-1.939.662-.823.735-1.222 1.861-1.222 2.792 0 2.939 2.232 4.017 3.267 4.017 2.71 0 3.161-2.548 3.161-3.552ZM20.64 48.582c-.638-.22-1.01-.637-1.143-1.2-.106-.392-.133-1.005-.133-2.18V43.07c0-.294-.08-.465-.371-.465h-.478c-.08 0-.08-.025-.08-.074v-.196c0-.073 0-.073.08-.073.106 0 .584.024 1.328.024.743 0 1.221-.024 1.328-.024.08 0 .08.024.08.073v.22c0 .025 0 .074-.08.074h-.479c-.292 0-.425.172-.478.367 0 .074-.026.686-.026 1.152v.587c0 .466.026 1.617.026 1.886 0 .392.08.833.32 1.127.371.49.982.637 1.54.637.53 0 1.115-.172 1.434-.49.398-.367.505-.93.505-1.592v-1.886c0-.686-.027-1.2-.027-1.42-.026-.22-.186-.392-.425-.392h-.398c-.08 0-.08-.025-.08-.074v-.196c0-.024 0-.073.08-.073.106 0 .531.024 1.195.024.69 0 .983-.024 1.089-.024.106 0 .106.024.106.073v.196c0 .074 0 .098-.08.098h-.398c-.372 0-.398.27-.425.367-.026.099-.026 1.372-.026 1.495 0 .122-.027 1.69-.027 2.057-.08.735-.292 1.298-.823 1.714-.399.343-.983.54-1.833.54-.505-.025-.983-.074-1.302-.221ZM28.847 42.63h-.24c-.318 0-1.142 0-1.54.098-.425.122-.717.76-.85 1.029-.026.024-.026.073-.106.024l-.186-.024c-.027 0-.08-.025-.027-.074.107-.343.425-1.494.478-1.592.027-.122.08-.122.107-.122.026 0 .08 0 .106.024l.133.074c.186.122.292.122.531.171.505.025.93.074 1.833.074h.478c1.036 0 1.487-.025 1.939-.074a.905.905 0 0 0 .504-.122l.186-.098c.027-.025.08-.025.107-.025.026 0 .08.025.08.123.026.098.212 1.224.291 1.616 0 .025 0 .074-.08.074l-.132.024c-.027 0-.027 0-.08-.073-.08-.172-.371-.857-.69-1.004-.293-.123-1.195-.172-1.7-.172h-.292v5.339c.026.22.106.368.318.368h.611c.08 0 .107.024.107.098v.196c0 .024 0 .073-.107.073-.106 0-.398-.024-1.354-.024-.93 0-1.328.024-1.488.024-.08 0-.08-.024-.08-.098v-.122c0-.074 0-.098.08-.098h.638c.186 0 .318-.098.318-.196.027-.27.027-3.013.027-3.184V42.63h.08ZM34.239 44.54c0-.22-.027-1.494-.027-1.665-.026-.196-.132-.27-.425-.27h-.53c-.027 0-.08 0-.08-.073v-.22c0-.025.026-.025.08-.025.132 0 .53.025 1.434.025.239 0 1.221-.025 1.434-.025 1.248 0 2.31.123 3.16.784.638.49 1.09 1.249 1.09 2.278 0 1.028-.32 1.714-.983 2.35-.93.956-2.258.956-3.028.956-.611 0-1.355-.024-1.806-.024-.824 0-1.222.024-1.355.024-.027 0-.08-.024-.08-.073v-.22c0-.025.027-.074.08-.074h.638c.185 0 .292-.074.318-.196.027-.196.08-2.18.08-2.89v-.661Zm.903.858c0 .122 0 1.616.027 2.18 0 .17.026.342.186.49.132.195.53.293 1.036.293 1.009 0 1.806-.392 2.257-.955.399-.465.717-1.2.717-2.033 0-.686-.318-1.494-.797-1.984-.504-.49-1.354-.857-2.443-.857-.213 0-.611 0-.797.098-.133.073-.186.22-.186.44v2.328ZM42.686 48.19c-.69-.392-1.435-1.372-1.435-2.645 0-.54.133-1.396.904-2.23.85-.954 1.806-1.126 2.63-1.126.61 0 1.407.123 2.15.686.718.563 1.329 1.42 1.329 2.694 0 .661-.213 1.323-.718 1.96-.584.734-1.434 1.249-2.815 1.249-.425 0-1.248-.147-2.045-.588Zm4.675-2.547c0-1.96-1.514-3.11-2.577-3.11-.133 0-.797-.099-1.54.538-.638.563-.983 1.494-.983 2.229 0 2.351 1.753 3.184 2.576 3.184 2.152-.074 2.523-2.058 2.523-2.841ZM50.733 48.19c-.69-.392-1.434-1.372-1.434-2.645 0-.54.133-1.396.903-2.23.85-.954 1.806-1.126 2.63-1.126.61 0 1.407.123 2.151.686.717.563 1.328 1.42 1.328 2.694 0 .661-.212 1.323-.717 1.96-.584.734-1.434 1.249-2.816 1.249-.425 0-1.274-.147-2.045-.588Zm4.675-2.547c0-1.96-1.514-3.11-2.576-3.11-.133 0-.797-.099-1.541.538-.637.563-.983 1.494-.983 2.229 0 2.351 1.753 3.184 2.577 3.184 2.178-.074 2.523-2.058 2.523-2.841ZM58.144 44.565v-1.494c0-.294-.133-.44-.372-.44h-.398c-.027 0-.08-.025-.08-.074v-.22c0-.025 0-.074.08-.074s.398.024 1.195.024c.531 0 1.434-.024 1.62-.024.797 0 1.435.22 1.806.539.32.294.505.685.505 1.028 0 1.127-.531 1.519-1.806 1.788v.025c.212.073.372.22.425.343.106.122.797 1.028.903 1.15.027.099.69.907.85 1.03.213.122.425.17.69.17.08 0 .08.025.08.074v.196c0 .074 0 .074-.08.074-.079 0-.318-.025-.743-.025-.292 0-.638.025-.797.025-.106-.098-.319-.392-.398-.49-.08-.098-.611-.955-.638-1.029-.026-.073-.504-.686-.61-.833-.24-.269-.479-.538-1.037-.538-.08 0-.185 0-.318.024v.49c0 .539 0 1.518.026 1.665.027.196.107.368.24.368h.61c.08 0 .08.024.08.073v.196c0 .074 0 .074-.106.074-.107 0-.372-.025-1.249-.025-.903 0-1.115.025-1.222.025-.08 0-.08-.025-.08-.074v-.196c0-.024 0-.073.027-.073h.399c.212 0 .398-.074.398-.294.027-.906.027-1.715.027-2.596v-.907h-.027v.025Zm.877.882c.133.024.239.024.425.024 1.753 0 2.125-1.126 2.125-1.494 0-.392-.213-.784-.478-1.028-.399-.27-.797-.392-1.62-.392a.673.673 0 0 0-.32.073c-.08.05-.106.123-.106.294v2.523h-.026ZM67.6 48.214c-.133-.098-.212-.122-.292-.122-.08 0-.107.073-.186.196-.08.122-.133.122-.213.122-.08 0-.132-.073-.106-.171.027-.294.186-1.715.213-2.058 0-.073.026-.073.08-.073h.185c.027 0 .08.025.08.098 0 .367.026.735.425 1.298.372.539 1.036.833 1.726.833.718 0 1.647-.441 1.647-1.42 0-1.152-.903-1.593-1.86-1.887-.398-.122-1.248-.392-1.805-.93-.399-.368-.611-.907-.611-1.666 0-.563.398-1.127.743-1.47.425-.391 1.036-.538 1.727-.538.69 0 1.222.196 1.434.27.107.073.186.024.213 0l.133-.123c.08-.025.106-.074.132-.074.027 0 .107.098.107.196 0 .392.132 1.568.186 1.788 0 .074 0 .074-.08.098l-.133.025c-.026 0-.08 0-.08-.025-.106-.343-.239-.76-.743-1.249-.319-.343-.744-.49-1.328-.49-1.09 0-1.488.735-1.488 1.323 0 .343.08.685.399 1.004.371.343 1.035.563 1.407.661.824.22 1.514.441 1.966.93.319.368.531.785.531 1.52 0 1.322-.85 2.449-2.47 2.449-.85.098-1.46-.172-1.939-.515ZM74.506 48.19c-.69-.392-1.434-1.372-1.434-2.645 0-.54.132-1.396.903-2.23.85-.954 1.806-1.126 2.63-1.126.61 0 1.407.123 2.15.686.718.563 1.329 1.42 1.329 2.694 0 .661-.213 1.323-.717 1.96-.585.734-1.435 1.249-2.816 1.249-.425 0-1.248-.147-2.045-.588Zm4.675-2.547c0-1.96-1.514-3.11-2.577-3.11-.132 0-.797-.099-1.54.538-.638.563-.983 1.494-.983 2.229 0 2.351 1.753 3.184 2.576 3.184 2.152-.074 2.524-2.058 2.524-2.841ZM81.917 44.638c0-.563-.027-1.518-.027-1.69-.026-.22-.08-.343-.371-.343h-.479c-.08 0-.08-.024-.08-.097v-.196c0-.025 0-.074.08-.074.107 0 .478.025 1.249.025.93 0 1.354-.025 1.434-.025.08 0 .08.025.08.074v.196c0 .024-.027.073-.106.073h-.585c-.292 0-.319.098-.319.367 0 .123-.026 1.47-.026 2.082v.76c0 .171 0 2.081.026 2.449.213.024 2.125.024 2.444 0 .585-.074 1.142-1.151 1.302-1.494.026-.025.026-.074.08-.025l.132.074c.027.024.027.024.027.073a45.373 45.373 0 0 0-.478 1.788c-.133 0-.903-.024-1.754-.024H81.36c-.186 0-.319.024-.398.024-.08 0-.08-.024-.08-.073v-.22c0-.025 0-.074.08-.074h.478c.372 0 .425-.123.425-.22 0-.172.026-2.376.026-2.94l.027-.49ZM89.062 48.582c-.638-.22-1.01-.637-1.142-1.2-.107-.392-.133-1.005-.133-2.18V43.07c0-.294-.08-.465-.372-.465h-.478c-.08 0-.08-.025-.08-.074v-.196c0-.073 0-.073.08-.073.106 0 .584.024 1.328.024.743 0 1.222-.024 1.328-.024.08 0 .08.024.08.073v.22c0 .025 0 .074-.08.074h-.478c-.292 0-.425.172-.478.367 0 .074-.027.686-.027 1.152v.587c0 .466.027 1.617.027 1.886 0 .392.08.833.318 1.127.372.49.983.637 1.541.637.531 0 1.116-.172 1.434-.49.399-.367.505-.93.505-1.592v-1.886c0-.686-.027-1.2-.027-1.42-.026-.22-.186-.392-.425-.392h-.425c-.08 0-.08-.025-.08-.074v-.196c0-.024 0-.073.08-.073.107 0 .532.024 1.196.024.69 0 .982-.024 1.089-.024.106 0 .106.024.106.073v.196c0 .074 0 .098-.08.098h-.398c-.372 0-.399.27-.425.367-.027.099-.027 1.372-.027 1.495 0 .122-.026 1.69-.026 2.057-.08.735-.292 1.298-.824 1.714-.398.343-.982.54-1.832.54-.478-.025-.93-.074-1.275-.221ZM97.269 42.63h-.24c-.318 0-1.141 0-1.54.098-.425.122-.717.76-.85 1.029-.026.024-.026.073-.106.024l-.186-.024c-.026 0-.08-.025-.026-.074.106-.343.425-1.494.478-1.592.026-.122.08-.122.106-.122.027 0 .08 0 .106.024l.133.074c.186.122.292.122.531.171.505.025.93.074 1.833.074h.478c1.036 0 1.488-.025 1.94-.074a.905.905 0 0 0 .504-.122l.186-.098c.026-.025.079-.025.106-.025.027 0 .08.025.08.123.026.098.212 1.224.292 1.616 0 .025 0 .074-.08.074l-.133.024c-.026 0-.026 0-.079-.073-.08-.172-.372-.857-.691-1.005-.292-.122-1.195-.17-1.7-.17h-.292V47.92c.026.22.106.368.319.368h.61c.08 0 .107.024.107.098v.196c0 .024 0 .073-.106.073-.107 0-.399-.024-1.355-.024-.93 0-1.328.024-1.487.024-.08 0-.08-.024-.08-.098v-.122c0-.074 0-.098.08-.098h.637c.186 0 .319-.098.319-.196.026-.27.026-3.013.026-3.184V42.63h.08ZM102.634 44.883c0-.196-.026-1.812-.026-1.959-.027-.196-.107-.294-.478-.294h-.585c-.026 0-.079-.024-.079-.073v-.22c0-.025.026-.074.079-.074.107 0 .611.024 1.514.024.85 0 1.196-.024 1.302-.024.026 0 .079.024.079.073v.22c0 .025-.026.074-.079.074h-.478c-.186 0-.319.074-.319.27 0 .098-.027 2.057-.027 2.18v.685c0 .098.027 2.155.027 2.253 0 .27.133.343.478.343h.398c.027 0 .08.025.08.074v.22a.08.08 0 0 1-.08.074c-.106 0-.504-.025-1.354-.025-.93 0-1.328.025-1.434.025-.027 0-.08-.025-.08-.074v-.22a.08.08 0 0 1 .08-.074h.531c.186 0 .398-.024.425-.27.026-.122.026-2.056.026-2.546v-.662ZM106.725 48.19c-.691-.392-1.434-1.372-1.434-2.645 0-.54.132-1.396.903-2.23.85-.954 1.806-1.126 2.629-1.126.611 0 1.408.123 2.152.686.717.563 1.328 1.42 1.328 2.694 0 .661-.213 1.323-.717 1.96-.585.734-1.435 1.249-2.816 1.249-.425 0-1.248-.147-2.045-.588Zm4.675-2.547c0-1.96-1.514-3.11-2.577-3.11-.133 0-.797-.099-1.54.538-.638.563-.983 1.494-.983 2.229 0 2.351 1.753 3.184 2.576 3.184 2.152-.074 2.524-2.058 2.524-2.841ZM114.109 43.487c0-.538-.292-.832-.638-.832h-.398c-.027 0-.08-.025-.08-.074v-.22c0-.025 0-.074.08-.074h.292c.16 0 .372.025.691.025.319 0 .531-.025.637-.025.133 0 .213.025.292.123l2.046 2.424c.106.123 1.753 1.984 1.965 2.254h.027v-1.053c0-.784 0-1.225-.027-1.69 0-.368-.079-1.225-.106-1.396-.08-.22-.239-.368-.531-.368h-.319c-.027 0-.08-.024-.08-.073v-.22c0-.025.027-.074.08-.074.133 0 .425.024 1.089.024.584 0 .823-.024.93-.024.079 0 .079.024.079.073v.22c0 .025-.026.074-.079.074h-.239c-.239 0-.372.172-.399.49-.026.588-.026 1.494-.026 2.057v3.356c0 .122 0 .196-.027.196-.106 0-.212-.098-.212-.123l-1.196-1.396c-.69-.76-1.407-1.592-1.434-1.665-.106-.098-1.912-2.156-1.939-2.23h-.08v1.985c0 .833.08 2.278.107 2.498.026.367.106.539.371.539h.293c.079 0 .079.024.079.073v.196c0 .074 0 .074-.079.074-.107 0-.691-.025-.93-.025-.213 0-.85.025-.983.025-.026 0-.026-.025-.026-.074v-.245c0-.024 0-.073.079-.073h.319c.292 0 .398-.098.425-.539.027-.171.027-1.2.027-2.792v-1.47h-.08v.05ZM121.759 48.312a.492.492 0 0 0-.213-.098c-.079 0-.106.074-.132.172-.08.098-.107.098-.186.098-.08 0-.107-.025-.08-.123.027-.22.133-1.371.186-1.616 0-.074.026-.074.08-.074h.132c.027 0 .08.025.08.074 0 .294.027.588.372 1.028.292.441.823.662 1.355.662.584 0 1.328-.343 1.328-1.127 0-.93-.718-1.249-1.514-1.518-.293-.098-1.01-.343-1.408-.735-.319-.294-.478-.735-.478-1.298 0-.441.292-.907.611-1.151.372-.294.823-.441 1.354-.441.532 0 .983.171 1.142.22.08.025.133.025.186 0l.133-.098c.027-.024.08-.073.133-.073.08 0 .08.073.08.171 0 .294.132 1.225.132 1.42 0 .025 0 .074-.026.074l-.106.025c-.027 0-.027 0-.08-.025-.08-.27-.213-.588-.611-1.004-.239-.27-.611-.392-1.036-.392-.85 0-1.195.588-1.195 1.053 0 .27.08.54.292.76.292.269.823.465 1.116.538.69.196 1.221.368 1.54.735.239.27.425.637.425 1.225 0 1.053-.69 1.96-1.965 1.96-.797.024-1.249-.172-1.647-.442Z"/></svg>